<svg width="151" height="151" viewBox="0 0 151 151" fill="none" xmlns="http://www.w3.org/2000/svg">
<path d="M93.0098 56.3455H39.0225V60.0492H93.0098V56.3455Z" fill="white"/>
<path d="M27.8431 61.9013C29.9728 61.9013 31.6993 60.2431 31.6993 58.1976C31.6993 56.1521 29.9728 54.4939 27.8431 54.4939C25.7133 54.4939 23.9868 56.1521 23.9868 58.1976C23.9868 60.2431 25.7133 61.9013 27.8431 61.9013Z" fill="white"/>
<path d="M93.0098 74.8643H39.0225V78.568H93.0098V74.8643Z" fill="white"/>
<path d="M27.8431 80.4196C29.9728 80.4196 31.6993 78.7614 31.6993 76.7159C31.6993 74.6704 29.9728 73.0122 27.8431 73.0122C25.7133 73.0122 23.9868 74.6704 23.9868 76.7159C23.9868 78.7614 25.7133 80.4196 27.8431 80.4196Z" fill="white"/>
<path d="M27.8431 98.9382C29.9728 98.9382 31.6993 97.28 31.6993 95.2345C31.6993 93.189 29.9728 91.5308 27.8431 91.5308C25.7133 91.5308 23.9868 93.189 23.9868 95.2345C23.9868 97.28 25.7133 98.9382 27.8431 98.9382Z" fill="white"/>
<path d="M69.8724 111.901H39.0225V115.605H69.8724V111.901Z" fill="white"/>
<path d="M27.8431 117.457C29.9728 117.457 31.6993 115.799 31.6993 113.753C31.6993 111.708 29.9728 110.049 27.8431 110.049C25.7133 110.049 23.9868 111.708 23.9868 113.753C23.9868 115.799 25.7133 117.457 27.8431 117.457Z" fill="white"/>
<path d="M150.46 47.2882L145.007 42.0511L141.598 45.3252L140.235 44.016L134.923 48.9252L116.147 66.7715V35.9752C116.147 23.7215 106.161 13.753 93.403 13.753H91.0816V11.9011C91.0816 9.86411 89.7396 8.19745 87.6187 8.19745H66.4094C66.4094 4.10671 62.9561 0.790039 58.6969 0.790039C54.4377 0.790039 50.9844 4.10671 50.9844 8.19745H29.7751C27.6542 8.19745 25.5255 9.86411 25.5255 11.9011V13.753H23.9907C11.2324 13.753 0.459961 23.7215 0.459961 35.9752V128.568C0.459961 140.822 11.2324 150.79 23.9907 150.79H93.403C106.161 150.79 116.147 140.822 116.147 128.568V82.4826L141.402 58.1974H141.5L148.368 51.7604L147.028 50.5049L150.46 47.2882ZM58.6969 4.49374C60.8255 4.49374 62.5531 6.153 62.5531 8.19745C62.5531 10.2419 60.8255 11.9011 58.6969 11.9011C56.5682 11.9011 54.8406 10.2419 54.8406 8.19745C54.8406 6.153 56.5682 4.49374 58.6969 4.49374ZM108.435 128.568C108.435 136.736 101.908 143.383 93.403 143.383H23.9907C15.4858 143.383 8.17244 136.736 8.17244 128.568V35.9752C8.17244 27.8067 15.4858 21.1604 23.9907 21.1604H25.9189L23.9907 28.5678C23.9907 30.6049 25.726 32.2715 27.847 32.2715H89.5468C91.6677 32.2715 93.403 30.6049 93.403 28.5678L91.4749 21.1604H93.403C101.908 21.1604 108.435 27.8067 108.435 35.9752V74.1789L88.8353 93.3826H39.0224V97.0863H84.9791L80.5868 101.305L77.1779 108.507H77.176L73.7671 115.71L88.5692 109.16L108.435 89.89V128.568ZM85.7465 108.881L80.1241 111.336L78.3194 109.605L80.8761 104.203L85.357 108.505L85.7465 108.881ZM141.938 55.4715L136.485 50.2345L139.944 46.9141L139.555 47.2882L145.005 52.5234L145.688 51.8678L145.69 51.8697L141.938 55.4715Z" fill="white"/>
</svg>
