<svg width="150" height="150" viewBox="0 0 150 150" fill="none" xmlns="http://www.w3.org/2000/svg">
<path d="M141.8 33.3481L148.258 20.3713L142.743 17.6165L150 10.3669L139.913 0L132.657 7.24959L129.899 1.7399L116.91 8.19203L121.844 18.0515L118.506 21.3863C104.094 9.61051 85.7023 3.81962 67.1358 5.21153C48.5694 6.60344 31.2488 15.0716 18.7569 28.8644C6.26508 42.6571 -0.442164 60.7191 0.0226395 79.3139C0.487443 97.9088 8.08873 115.614 21.2541 128.766C34.4195 141.919 52.1416 149.513 70.7544 149.977C89.3673 150.442 107.447 143.741 121.253 131.261C135.059 118.781 143.535 101.478 144.929 82.9291C146.322 64.3806 140.525 46.0067 128.738 31.6082L132.076 28.2734L141.8 33.3481ZM130.552 77.6431C130.575 90.7513 126.152 103.481 118.005 113.756C109.857 124.03 98.4661 131.245 85.6883 134.223C72.9105 137.201 59.4997 135.767 47.6424 130.154C35.7852 124.541 26.1808 115.081 20.3952 103.316C14.6096 91.5511 12.9841 78.175 15.7836 65.3686C18.5831 52.5622 25.6426 41.0809 35.811 32.7967C45.9794 24.5125 58.657 19.9139 71.7769 19.7507C84.8968 19.5876 97.6851 23.8694 108.057 31.8982L97.6799 42.1926C88.7834 35.8681 77.8329 33.1141 66.9994 34.4763C56.1659 35.8386 46.2402 41.2177 39.1899 49.5474C32.1396 57.8771 28.4794 68.5492 28.935 79.4482C29.3906 90.3472 33.9287 100.677 41.6496 108.391C49.3705 116.104 59.7106 120.638 70.6201 121.093C81.5296 121.548 92.212 117.891 100.55 110.848C108.888 103.805 114.272 93.8884 115.635 83.0654C116.999 72.2423 114.242 61.3025 107.912 52.4145L118.289 42.1201C126.209 52.2733 130.524 64.7705 130.552 77.6431ZM101.526 77.6431C101.526 83.3784 99.8235 88.9849 96.6341 93.7537C93.4446 98.5224 88.9113 102.239 83.6074 104.434C78.3036 106.629 72.4673 107.203 66.8367 106.084C61.2062 104.965 56.0342 102.203 51.9747 98.148C47.9153 94.0925 45.1508 88.9255 44.0308 83.3004C42.9109 77.6752 43.4857 71.8446 45.6826 66.5459C47.8796 61.2471 51.5999 56.7182 56.3733 53.5318C61.1467 50.3454 66.7586 48.6447 72.4995 48.6447C77.6173 48.7197 82.6243 50.1453 87.0127 52.777L69.5243 70.3935H65.2429V84.8926H79.7561V80.6154L97.3896 63.1439C100.024 67.5281 101.451 72.5302 101.526 77.6431Z" fill="white"/>
</svg>
