<svg width="150" height="150" viewBox="0 0 150 150" fill="none" xmlns="http://www.w3.org/2000/svg">
<path d="M122.665 43.7079C123.067 40.2814 123.214 35.6186 123.214 34.2857C123.214 14.0979 103.388 0 75 0C46.6125 0 26.7857 14.0979 26.7857 34.2857C26.7857 35.6186 26.933 40.2814 27.3348 43.7079C10.6527 54.7221 0 71.3829 0 90C0 123.084 33.6455 150 75 150C116.354 150 150 123.084 150 90C150 71.3829 139.347 54.7221 122.665 43.7079ZM37.5 34.2857C37.5 16.5236 56.333 8.57143 75 8.57143C93.667 8.57143 112.5 16.5236 112.5 34.2857C112.5 35.265 112.454 36.6129 112.382 38.0186C101.371 32.9293 88.6071 30 75 30C61.3929 30 48.6295 32.9293 37.6179 38.0186C37.5455 36.6129 37.5 35.265 37.5 34.2857ZM75 141.429C39.5545 141.429 10.7143 118.356 10.7143 90C10.7143 61.6436 39.5545 38.5714 75 38.5714C110.446 38.5714 139.286 61.6436 139.286 90C139.286 118.356 110.446 141.429 75 141.429Z" fill="white"/>
<path d="M62.9301 88.6435C64.3096 88.1914 65.4292 87.5592 66.289 86.7578C67.6819 85.4635 68.3864 83.7856 68.3864 81.7135C68.3864 78.8099 67.2105 76.5814 64.8506 75.0556C62.4935 73.5192 59.1587 72.7563 54.8569 72.7563C49.4114 72.7563 45.6158 74.1749 43.4462 77.3164C42.1953 79.0778 41.5605 81.4285 41.5605 83.5713H46.8185C46.9123 81.4285 47.3355 80.3314 48.0801 79.2942C49.4355 77.4085 51.8864 76.5428 55.4221 76.5428C57.4015 76.5428 59.1373 77.0335 60.6319 77.9506C62.1292 78.8635 62.8712 80.1749 62.8712 81.8528C62.8712 84.1178 61.7515 85.7013 59.5123 86.5778C58.2373 87.0856 56.6006 87.3363 54.6212 87.3363C54.1846 87.3363 53.2203 87.3385 52.8533 87.3192C52.4756 87.3021 53.5712 87.2764 50.8926 87.2292V90.9835C53.5712 90.9642 52.2024 90.9535 52.5694 90.9449C52.9364 90.9342 53.5712 90.9256 53.9221 90.9256C57.0828 90.9256 59.6998 91.3971 61.481 92.3206C63.2596 93.2442 64.2158 94.8749 64.2158 97.2042C64.2158 99.0899 63.4042 100.628 61.7167 101.824C60.0319 103.013 57.8087 103.616 55.0123 103.616C51.4176 103.616 48.9399 102.842 47.5632 101.068C46.7837 100.082 46.2721 98.5713 46.039 96.4285H40.4998C40.4998 98.5713 41.6328 102.116 43.8828 104.314C46.1355 106.502 49.7542 107.548 54.7417 107.548C59.6087 107.548 63.3721 106.498 66.0346 104.468C68.673 102.441 70.0069 99.8056 70.0069 96.5785C70.0069 94.5706 69.3828 92.8585 68.1319 91.4699C66.881 90.0771 65.1453 89.1342 62.9301 88.6435Z" fill="white"/>
<path d="M88.9956 98.1495C90.0912 97.3888 91.6019 96.4995 93.5197 95.6509L97.5644 93.8209C101.124 92.2373 103.588 90.8595 104.957 89.7473C107.338 87.8316 108.528 85.513 108.528 82.8088C108.528 80.2438 107.408 77.9188 105.18 75.823C102.951 73.7295 99.418 72.6902 94.5831 72.6902C88.7706 72.6902 84.7153 74.7902 82.4171 78.0623C81.118 79.9116 80.4349 81.4288 80.3894 85.7145H85.776C85.859 83.5716 86.2742 81.5123 87.0162 80.3316C88.4063 78.1266 90.9296 76.7895 94.559 76.7895C97.0099 76.7895 98.9787 77.248 100.452 78.4073C101.925 79.558 102.667 81.0645 102.667 83.0359C102.667 84.7223 101.853 86.1838 100.24 87.4952C99.2251 88.3245 97.4465 89.3188 94.9126 90.4973L89.2554 93.1009C85.4599 94.8666 82.9126 97.1145 81.6055 99.2659C80.2956 101.415 79.551 102.857 79.3501 107.143H107.143V102.857H85.2697C85.7867 100.714 87.0242 99.5252 88.9956 98.1495Z" fill="white"/>
</svg>
