<svg width="152" height="152" viewBox="0 0 152 152" fill="none" xmlns="http://www.w3.org/2000/svg">
<path d="M118.5 21H151V56H1V21H33.5" stroke="white" stroke-width="2" stroke-linejoin="round"/>
<path d="M146 56H6V151H146V56Z" stroke="white" stroke-width="2" stroke-linejoin="round"/>
<path d="M118.5 1H33.5V41H118.5V1Z" stroke="white" stroke-width="2" stroke-linejoin="round"/>
<path d="M61 11H43.5V31H58.5V21H51" stroke="white" stroke-width="2" stroke-linejoin="round"/>
<path d="M68.5 8.5V13.5C68.5 15.4891 69.2902 17.3968 70.6967 18.8033C72.1032 20.2098 74.0109 21 76 21C77.9891 21 79.8968 20.2098 81.3033 18.8033C82.7098 17.3968 83.5 15.4891 83.5 13.5V8.5" stroke="white" stroke-width="2" stroke-linejoin="round"/>
<path d="M76 21V33.5" stroke="white" stroke-width="2" stroke-linejoin="round"/>
<path d="M93.5 33.5V11L101 26L108.5 11V33.5" stroke="white" stroke-width="2" stroke-linejoin="round"/>
<path d="M46 151V101H106V151" stroke="white" stroke-width="2" stroke-linejoin="round"/>
<path d="M76 101V151" stroke="white" stroke-width="2" stroke-linejoin="round"/>
<path d="M136 66H16V91H136V66Z" stroke="white" stroke-width="2" stroke-linejoin="round"/>
<path d="M56 66V91" stroke="white" stroke-width="2" stroke-linejoin="round"/>
<path d="M96 66V91" stroke="white" stroke-width="2" stroke-linejoin="round"/>
<path d="M23.5 83.5L33.5 73.5" stroke="white" stroke-width="2" stroke-linejoin="round"/>
<path d="M38.5 83.5L48.5 73.5" stroke="white" stroke-width="2" stroke-linejoin="round"/>
<path d="M63.5 83.5L73.5 73.5" stroke="white" stroke-width="2" stroke-linejoin="round"/>
<path d="M78.5 83.5L88.5 73.5" stroke="white" stroke-width="2" stroke-linejoin="round"/>
<path d="M103.5 83.5L113.5 73.5" stroke="white" stroke-width="2" stroke-linejoin="round"/>
<path d="M118.5 83.5L128.5 73.5" stroke="white" stroke-width="2" stroke-linejoin="round"/>
<path d="M66 118.5V128.5" stroke="white" stroke-width="2" stroke-linejoin="round"/>
<path d="M86 118.5V128.5" stroke="white" stroke-width="2" stroke-linejoin="round"/>
</svg>
