<svg width="158" height="158" viewBox="0 0 158 158" fill="none" xmlns="http://www.w3.org/2000/svg">
<path d="M79.0001 4.00003C101.576 4.00003 119.879 17.068 119.879 33.1878L119.879 53.0105L38.1224 53.0105L38.1224 33.1878C38.1216 17.0674 56.4237 4.00003 79.0001 4.00003Z" stroke="white" stroke-width="8" stroke-miterlimit="10" stroke-linejoin="round"/>
<path d="M38.352 53.0097L119.648 53.0098L154 145.099L153.281 145.81C141.672 157.298 117.396 156.574 107.17 144.433L103.524 140.104L99.7571 144.706C90.4758 156.047 67.5216 156.047 58.2412 144.706L54.4746 140.104L50.83 144.431C40.6053 156.572 16.3289 157.298 4.71895 145.81L4.00002 145.098L38.352 53.0097Z" stroke="white" stroke-width="8" stroke-miterlimit="10" stroke-linejoin="round"/>
<path d="M120.207 41.4392L36.0391 41.4392" stroke="white" stroke-width="8" stroke-miterlimit="10" stroke-linejoin="round"/>
<path d="M103.525 139.983L91.9847 52.8884" stroke="white" stroke-width="8" stroke-miterlimit="10" stroke-linejoin="round"/>
<path d="M66.0154 52.8884L54.4747 139.983" stroke="white" stroke-width="8" stroke-miterlimit="10" stroke-linejoin="round"/>
<path d="M141.957 111.264L119.876 106.269L99.7204 111.264L79.0001 106.269L58.2798 111.264L38.1207 106.269L16.0432 111.264" stroke="white" stroke-width="8" stroke-miterlimit="10" stroke-linejoin="round"/>
<path d="M54.4747 139.983L66.0154 52.8884" stroke="white" stroke-width="8" stroke-miterlimit="10" stroke-linejoin="round"/>
</svg>
