<svg width="150" height="150" viewBox="0 0 150 150" fill="none" xmlns="http://www.w3.org/2000/svg">
<path d="M141.211 64.9109L140.385 63.4167C135.771 55.0488 133.333 45.7764 133.333 36.5991V22.5C133.333 10.0928 122.119 0 108.333 0C101.575 0 95.2799 2.37671 90.7633 6.55518C85.9741 10.7593 83.3333 16.4209 83.3333 22.5V36.5991C83.3333 40.9689 82.7377 45.2829 81.6859 49.52C74.3825 46.6191 66.5003 45 58.3333 45C26.1678 45 0 68.551 0 97.5C0 126.449 26.1678 150 58.3333 150C62.5127 150 66.5766 149.465 70.5566 148.683C71.8613 149.446 73.3281 150 75 150H116.667C135.046 150 150 136.542 150 120V98.4009C150 86.9238 146.96 75.3442 141.211 64.9109ZM100 22.5C100 20.5005 100.85 18.6511 102.551 17.157C104.057 15.7654 106.108 15 108.333 15C112.927 15 116.667 18.3655 116.667 22.5V36.5991C116.667 39.3997 116.86 42.2058 117.218 45H99.3235C99.6755 42.2145 100 39.4235 100 36.5991V22.5ZM16.6667 97.5C16.6667 76.8237 35.3597 60 58.3333 60C66.8783 60 75.0529 62.3035 82.0353 66.709C93.2861 73.6523 100 85.166 100 97.5C100 113.416 88.855 127.599 72.1436 132.828C67.7572 134.271 63.1144 135 58.3333 135C35.3597 135 16.6667 118.176 16.6667 97.5ZM133.333 120C133.333 128.273 125.859 135 116.667 135H99.1699C99.412 134.786 99.6216 134.546 99.8596 134.328C100.239 133.982 100.588 133.617 100.956 133.261C102.516 131.755 103.976 130.176 105.327 128.517C105.592 128.192 105.88 127.885 106.137 127.554C107.608 125.659 108.917 123.668 110.101 121.609C110.379 121.125 110.629 120.633 110.891 120.141C111.919 118.21 112.835 116.229 113.597 114.185C113.693 113.929 113.816 113.685 113.907 113.427C114.701 111.183 115.284 108.869 115.739 106.52C115.848 105.958 115.939 105.397 116.027 104.83C116.405 102.421 116.667 99.9834 116.667 97.5C116.667 95.4515 116.513 93.4236 116.254 91.4163C116.168 90.753 116.01 90.1071 115.896 89.4498C115.667 88.1186 115.424 86.792 115.083 85.4883C114.882 84.7165 114.621 83.9658 114.382 83.205C114.017 82.0441 113.636 80.8914 113.184 79.7594C112.869 78.9688 112.514 78.197 112.157 77.422C111.669 76.3623 111.153 75.3177 110.589 74.29C110.163 73.5123 109.718 72.7487 109.25 71.9916C108.644 71.0124 107.996 70.0598 107.321 69.1173C106.793 68.3798 106.266 67.6465 105.697 66.9333C104.965 66.0164 104.177 65.1393 103.378 64.265C102.77 63.5989 102.182 62.9233 101.536 62.2838C100.736 61.4909 99.8718 60.7498 99.0148 60H120.974C122.23 63.441 123.661 66.8335 125.456 70.0891L126.282 71.5833C130.896 79.9512 133.333 89.2236 133.333 98.4009V120Z" fill="white"/>
<path d="M47.5829 92.1753C45.2473 90.1502 41.5811 89.4727 38.4968 90.597C37.4145 90.9742 36.5803 91.4978 35.7502 92.1753C34.9975 92.9224 34.4156 93.6731 33.9965 94.6473C33.5815 95.5481 33.3333 96.5223 33.3333 97.5C33.3333 99.5252 34.2488 101.4 35.7502 102.825C36.5803 103.499 37.4145 104.022 38.4968 104.399C39.4978 104.773 40.5802 105 41.6666 105C43.8313 105 46.0001 104.172 47.5829 102.825C47.9166 102.448 48.3316 102.074 48.5798 101.624C48.9135 101.25 49.1658 100.8 49.3326 100.349C49.5808 99.8987 49.7476 99.4483 49.8331 98.9978C49.9145 98.4742 49.9999 98.0237 49.9999 97.5C49.9999 96.5223 49.7476 95.5481 49.3326 94.6473C48.9135 93.75 48.3316 92.9224 47.5829 92.1753Z" fill="white"/>
<path d="M78.1658 104.399C79.1667 104.022 80.0823 103.498 80.9164 102.825C81.2501 102.447 81.5837 102.074 81.9133 101.623C82.247 101.25 82.4993 100.799 82.6661 100.349C82.9143 99.8986 83.0811 99.4481 83.1666 98.9977C83.248 98.474 83.3334 98.0236 83.3334 97.4999C83.3334 96.5221 83.0811 95.548 82.6661 94.6471C82.247 93.673 81.6651 92.9222 80.9164 92.1752C80.0823 91.4977 79.1667 90.974 78.1658 90.5968C75.0815 89.3993 71.4153 90.15 69.0837 92.1752C68.331 92.9222 67.7491 93.673 67.33 94.6471C66.915 95.548 66.6667 96.5221 66.6667 97.4999C66.6667 98.0236 66.7481 98.474 66.8336 98.9977C66.915 99.4481 67.0818 99.8986 67.33 100.349C67.4968 100.799 67.7491 101.25 68.0828 101.623C68.4164 102.074 68.7501 102.447 69.0837 102.825C70.6666 104.172 72.8313 105 75.0001 105C76.0824 105 77.1648 104.773 78.1658 104.399Z" fill="white"/>
<path d="M65.9994 79.647C65.5802 78.7498 64.9984 77.9222 64.2497 77.1751C63.4155 76.4976 62.5814 75.9739 61.499 75.5967C58.4147 74.3992 54.7485 75.0731 52.417 77.1751C51.6642 77.9222 51.0824 78.7498 50.6632 79.647C50.2482 80.5479 50 81.522 50 82.4998C50 83.0235 50.0814 83.4739 50.1668 83.9976C50.2482 84.4481 50.415 84.8985 50.6632 85.3489C50.8301 85.7994 51.0824 86.2498 51.416 86.7002C51.7497 87.0738 52.0833 87.4473 52.417 87.8245C53.9998 89.1722 56.1646 89.9998 58.3333 89.9998C59.4157 89.9998 60.498 89.7728 61.499 89.3992C62.5814 89.022 63.4155 88.4983 64.2497 87.8245C64.5833 87.4473 64.9984 87.0738 65.2466 86.7002C65.5802 86.2498 65.8325 85.7994 65.9994 85.3489C66.2476 84.8985 66.4144 84.4481 66.4998 83.9976C66.5812 83.4739 66.6667 83.0235 66.6667 82.4998C66.6667 81.522 66.4144 80.5479 65.9994 79.647Z" fill="white"/>
</svg>
