<svg width="121" height="59" viewBox="0 0 121 59" fill="none" xmlns="http://www.w3.org/2000/svg">
<path fill-rule="evenodd" clip-rule="evenodd" d="M3.49328 25.2369C9.70831 25.5985 13.4332 25.0789 19.5892 24.674C24.3456 24.3611 24.0934 24.1905 28.5608 25.733C21.4213 29.0064 11.3993 31.5648 3.49328 32.2234C1.56401 32.2234 0 30.6594 0 28.7302C0 26.8009 1.56401 25.2369 3.49328 25.2369Z" fill="url(#paint0_linear_70111_23)"/>
<path fill-rule="evenodd" clip-rule="evenodd" d="M3.49329 28.7302C14.8541 28.7302 20.2481 25.733 28.5608 25.733Z" fill="url(#paint1_linear_70111_23)"/>
<path fill-rule="evenodd" clip-rule="evenodd" d="M11.7198 53.3685C12.5734 48.3177 16.0945 33.9267 13.717 29.727L13.5747 29.2751C13.9272 29.0567 13.927 28.9825 14.3039 28.9815C20.0043 28.9672 18.8304 50.0214 18.6993 53.6819C18.6128 55.6093 16.9802 57.1015 15.0529 57.015C13.1255 56.9284 11.6332 55.2959 11.7198 53.3685Z" fill="url(#paint2_linear_70111_23)"/>
<path fill-rule="evenodd" clip-rule="evenodd" d="M15.2096 53.5252C15.2529 52.5606 18.4846 31.0988 14.1197 29.4775L13.5747 29.2751" fill="url(#paint3_linear_70111_23)"/>
<path fill-rule="evenodd" clip-rule="evenodd" d="M42.3598 30.7393C38.1139 29.7045 34.9908 29.775 37.8179 34.7781C41.7788 41.7874 49.8788 42.3009 50.2877 48.7326C50.8454 57.5034 37.4894 62.3252 28.5857 52.8013C27.2546 51.3775 27.8743 49.0723 28.5608 47.5308C28.908 48.4665 29.2924 50.969 29.7809 51.3515C39.9493 59.3141 50.0112 50.5532 43.7022 47.0241C37.8234 43.7358 28.0415 36.7076 30.9743 28.5839C33.0382 22.8669 39.2543 23.0943 44.1888 23.9964C46.0508 24.5015 47.1508 26.4204 46.6457 28.2824C46.1407 30.1444 44.2218 31.2444 42.3598 30.7393Z" fill="url(#paint4_linear_70111_23)"/>
<path fill-rule="evenodd" clip-rule="evenodd" d="M43.2743 27.3679C30.555 23.9176 29.8106 36.4188 44.9325 44.8061C53.8955 49.7773 41.4601 63.2304 29.2226 52.1006C28.2347 51.2022 28.5609 48.8349 28.5609 47.5308" fill="url(#paint5_linear_70111_23)"/>
<path fill-rule="evenodd" clip-rule="evenodd" d="M60.7657 49.2273C61.1497 49.7799 61.5286 50.3495 61.9152 50.9099C63.3333 48.7986 64.1489 45.573 64.8775 43.0058C61.9371 42.6908 59.6969 41.9005 59.0045 40.3601C56.9443 35.7764 58.9022 29.4084 64.6129 33.2805C65.5975 33.9481 66.469 34.6669 67.2449 35.4222C67.8435 33.5095 68.4381 31.5954 69.0295 29.6801L69.2461 30.0872C69.396 27.8692 70.2154 26.1598 72.8952 26.6814C76.2284 27.33 77.1835 36.1958 77.5665 40.4566C81.5815 40.3891 85.1677 40.1814 86.6091 40.0252C87.2058 39.9606 87.3696 40.0464 87.9598 40.1741C87.1648 40.6459 87.5773 40.4587 86.7259 40.7433L86.7649 40.7348C85.2567 41.1841 81.771 41.9146 77.7542 42.459C78.1141 45.4706 80.1103 59.0125 74.2305 57.4499C72.2228 56.9163 70.7964 53.3748 69.6534 49.7956C68.4725 53.3088 66.8311 56.5943 64.2192 58.0118C59.9307 60.3393 57.3978 56.432 55.21 53.4636C54.0402 51.9294 54.3356 49.7374 55.8697 48.5676C57.4039 47.3978 59.5959 47.6932 60.7657 49.2273ZM65.7781 40.0241C64.7139 38.4921 63.45 37.2366 61.787 36.1283C61.7348 37.0095 62.012 38.4724 62.1049 38.9899C62.7321 39.4593 64.0529 39.7932 65.7781 40.0241ZM62.0422 38.9412C62.0345 38.9323 62.0257 38.9228 62.0155 38.9122L62.0152 38.9203C62.0234 38.9274 62.0333 38.9343 62.0422 38.9412ZM72.3106 43.0269L72.1964 43.0351C72.2534 43.1731 72.3094 43.311 72.3641 43.4485L72.3106 43.0269ZM69.9539 31.4184C69.9339 31.385 69.9138 31.3533 69.894 31.3255C69.9141 31.3577 69.9341 31.3887 69.9539 31.4184Z" fill="url(#paint6_linear_70111_23)"/>
<path fill-rule="evenodd" clip-rule="evenodd" d="M57.9878 51.3455C60.2938 54.3695 61.4181 58.0884 65.3446 51.9371C65.8839 51.0921 72.1737 29.6396 72.1564 29.5476C74.3268 30.109 79.7408 74.775 70.4748 44.6504C68.0825 36.8729 57.6641 28.065 60.4867 39.5124C61.4151 43.2772 83.2671 41.3285 86.6675 40.3843L87.9598 40.1741" fill="url(#paint7_linear_70111_23)"/>
<path fill-rule="evenodd" clip-rule="evenodd" d="M91.5238 51.6744C97.2859 47.9175 96.6792 49.259 94.8434 42.7433C93.5657 38.2084 92.6855 34.1072 91.2869 29.5049C89.2048 22.6531 89.0588 17.1685 97.9314 17.3691C103.855 17.5029 107.392 18.7061 109.108 24.8521C111.04 31.7754 107.177 37.0962 100.416 38.9146C100.641 39.6606 100.86 40.3608 101.069 41.0188C104.753 47.7268 112.589 57.8724 117.768 53.2255C120.056 51.1728 119.957 48.9904 119.294 46.4409C122.451 48.2557 120.688 53.514 118.337 55.2949C113.265 59.1366 107.351 54.9372 102.721 49.587C102.219 51.9907 100.159 54.1482 95.2947 57.5558C93.6706 58.5972 91.5098 58.1247 90.4685 56.5006C89.4272 54.8765 89.8997 52.7157 91.5238 51.6744ZM99.2331 34.7893C108.422 31.7621 103.592 23.4675 102.146 23.1722L102.215 23.1965C101.283 23.0959 96.9746 22.5441 95.7457 23.1393C95.7349 24.3935 96.6177 26.6541 96.9438 27.5962C97.871 30.2746 98.5277 32.3547 99.2331 34.7893ZM95.6489 23.1928C95.6219 23.2098 95.5964 23.2274 95.5739 23.246C95.6096 23.2248 95.6326 23.2079 95.6489 23.1928Z" fill="url(#paint8_linear_70111_23)"/>
<path fill-rule="evenodd" clip-rule="evenodd" d="M93.4093 54.6151C102.622 48.7081 99.3728 49.0378 96.2508 35.542C93.8834 25.3082 87.4595 18.1889 102.627 20.5794C106.704 21.2221 112.4 35.0752 97.2006 37.426C96.8838 37.475 108.213 60.6485 117.792 54.4516C119.559 53.3081 121.636 48.9832 119.294 46.4409" fill="url(#paint9_linear_70111_23)"/>
<path fill-rule="evenodd" clip-rule="evenodd" d="M57.411 23.557C54.0289 19.4626 52.8579 15.0501 53.3589 9.65714C53.8364 4.51566 58.8455 6.32512 61.608 8.97323C62.2004 9.5411 62.7871 10.2194 63.5175 10.6155C63.5207 10.6286 63.5191 10.6221 63.5222 10.6348C65.8249 10.7959 69.7518 1.36815 71.9813 0.36083C76.9613 -1.88912 77.806 7.03558 79.8673 9.11967C79.9761 9.22971 79.9421 9.15817 79.9683 9.21951L79.9346 9.22803L79.9491 9.23991C83.0855 8.61098 84.8003 0.277898 88.515 3.06847C91.4753 5.29236 90.9961 16.2055 84.7644 18.9819C77.0826 22.4043 71.0087 20.2996 63.3329 20.4805C63.5295 21.575 63.2016 22.7444 62.3511 23.5851C60.9792 24.9415 58.7674 24.9289 57.411 23.557ZM62.7603 19.1021C69.5245 17.4511 76.0601 19.6024 83.2614 15.7309C85.0294 14.7805 85.8618 12.5302 86.0159 10.3161C84.8989 11.802 83.5882 13.1205 81.9713 13.799C77.2961 15.7608 75.0182 11.6079 73.4261 8.18962C71.4384 11.7248 68.4095 15.6274 65.0785 16.6264C63.3858 17.1341 61.9943 16.867 60.8121 16.2832C61.1589 17.0664 61.6564 17.8403 62.3793 18.645C62.5214 18.7887 62.6483 18.9419 62.7603 19.1021ZM56.2671 12.8636C56.2396 12.8492 56.2122 12.8353 56.1848 12.8221C56.2118 12.8392 56.2392 12.8527 56.2671 12.8636Z" fill="url(#paint10_linear_70111_23)"/>
<path fill-rule="evenodd" clip-rule="evenodd" d="M59.8951 21.101C56.9195 18.0912 56.6254 14.15 56.6254 9.65714C60.5284 9.65714 62.9617 22.0325 72.5222 3.66274C75.4266 -1.91785 75.9614 23.2653 86.7998 4.95497C87.7871 3.28693 90.1754 14.5073 84.0128 17.3564C74.6227 21.6976 69.2816 17.8621 58.8052 20.556" fill="url(#paint11_linear_70111_23)"/>
<defs>
<linearGradient id="paint0_linear_70111_23" x1="4.23236" y1="25.1974" x2="19.941" y2="41.5227" gradientUnits="userSpaceOnUse">
<stop stop-color="#B9C512"/>
<stop offset="1" stop-color="#5A5F09"/>
</linearGradient>
<linearGradient id="paint1_linear_70111_23" x1="7.20798" y1="26.0161" x2="11.5692" y2="36.3143" gradientUnits="userSpaceOnUse">
<stop stop-color="#B9C512"/>
<stop offset="1" stop-color="#5A5F09"/>
</linearGradient>
<linearGradient id="paint2_linear_70111_23" x1="12.7787" y1="31.6294" x2="20.939" y2="32.2186" gradientUnits="userSpaceOnUse">
<stop stop-color="#B9C512"/>
<stop offset="1" stop-color="#5A5F09"/>
</linearGradient>
<linearGradient id="paint3_linear_70111_23" x1="13.9936" y1="31.5653" x2="17.2241" y2="31.6717" gradientUnits="userSpaceOnUse">
<stop stop-color="#B9C512"/>
<stop offset="1" stop-color="#5A5F09"/>
</linearGradient>
<linearGradient id="paint4_linear_70111_23" x1="31.1357" y1="26.7676" x2="56.0369" y2="31.3524" gradientUnits="userSpaceOnUse">
<stop stop-color="#B9C512"/>
<stop offset="1" stop-color="#5A5F09"/>
</linearGradient>
<linearGradient id="paint5_linear_70111_23" x1="31.3956" y1="29.5765" x2="52.9363" y2="33.5764" gradientUnits="userSpaceOnUse">
<stop stop-color="#B9C512"/>
<stop offset="1" stop-color="#5A5F09"/>
</linearGradient>
<linearGradient id="paint6_linear_70111_23" x1="59.4536" y1="29.6216" x2="94.693" y2="39.9832" gradientUnits="userSpaceOnUse">
<stop stop-color="#B9C512"/>
<stop offset="1" stop-color="#5A5F09"/>
</linearGradient>
<linearGradient id="paint7_linear_70111_23" x1="62.4293" y1="31.9757" x2="93.3673" y2="42.1583" gradientUnits="userSpaceOnUse">
<stop stop-color="#B9C512"/>
<stop offset="1" stop-color="#5A5F09"/>
</linearGradient>
<linearGradient id="paint8_linear_70111_23" x1="94.5219" y1="21.2117" x2="128.507" y2="28.5317" gradientUnits="userSpaceOnUse">
<stop stop-color="#B9C512"/>
<stop offset="1" stop-color="#5A5F09"/>
</linearGradient>
<linearGradient id="paint9_linear_70111_23" x1="96.935" y1="23.4574" x2="126.928" y2="30.0318" gradientUnits="userSpaceOnUse">
<stop stop-color="#B9C512"/>
<stop offset="1" stop-color="#5A5F09"/>
</linearGradient>
<linearGradient id="paint10_linear_70111_23" x1="58.7347" y1="2.32271" x2="94.6119" y2="17.5713" gradientUnits="userSpaceOnUse">
<stop stop-color="#B9C512"/>
<stop offset="1" stop-color="#5A5F09"/>
</linearGradient>
<linearGradient id="paint11_linear_70111_23" x1="61.288" y1="4.56122" x2="90.3987" y2="18.7194" gradientUnits="userSpaceOnUse">
<stop stop-color="#B9C512"/>
<stop offset="1" stop-color="#5A5F09"/>
</linearGradient>
</defs>
</svg>
